<?xml version="1.0" standalone="no"?>
<!DOCTYPE svg PUBLIC "-//W3C//DTD SVG 20010904//EN"
 "http://www.w3.org/TR/2001/REC-SVG-20010904/DTD/svg10.dtd">
<svg version="1.0" xmlns="http://www.w3.org/2000/svg"
 width="315.000000pt" height="290.000000pt" viewBox="0 0 315.000000 290.000000"
 preserveAspectRatio="xMidYMid meet">
<metadata>
Created by potrace 1.15, written by Peter Selinger 2001-2017
</metadata>
<g transform="translate(0.000000,290.000000) scale(0.100000,-0.100000)"
fill="#000000" stroke="none">
<path d="M2175 2876 c-94 -41 -208 -180 -256 -309 -12 -34 -24 -64 -25 -66 -2
-2 -20 7 -41 20 -156 94 -368 189 -425 189 -19 0 -45 -17 -88 -56 -99 -92
-160 -244 -176 -437 l-7 -74 -106 -11 c-59 -6 -133 -20 -164 -32 -118 -44
-204 -161 -228 -311 -7 -41 -19 -80 -28 -86 -26 -22 -191 -8 -179 15 32 59 40
92 36 146 -4 46 -9 63 -27 77 -34 27 -92 25 -120 -5 -42 -45 -40 -158 4 -202
l24 -24 -22 -12 c-12 -7 -51 -13 -87 -13 -53 0 -74 5 -111 27 -51 30 -91 83
-110 146 -15 51 -41 58 -33 10 9 -50 52 -140 82 -172 66 -70 186 -87 280 -40
47 24 56 25 84 13 17 -7 66 -13 109 -13 l79 -1 -5 -105 c-15 -328 -27 -900
-22 -1018 17 -349 53 -415 257 -471 116 -33 271 -39 1035 -46 752 -7 807 -5
900 35 68 29 147 109 181 183 l29 62 5 485 5 485 44 6 c70 9 71 11 71 278 0
130 -5 252 -10 272 -12 42 -48 63 -101 57 -32 -3 -33 -2 -45 54 -24 105 -63
165 -171 262 -231 208 -364 348 -438 461 -40 61 -86 138 -104 173 -33 66 -43
71 -96 48z m58 -80 c12 -13 51 -73 86 -132 104 -177 181 -269 348 -416 62 -55
112 -102 110 -104 -2 -3 -58 5 -123 16 -70 12 -165 20 -232 20 -132 0 -102
-14 -324 158 -82 63 -148 121 -148 128 0 28 61 178 91 225 40 63 115 129 146
129 13 0 34 -11 46 -24z m-601 -206 c66 -24 152 -84 335 -231 70 -57 177 -139
238 -182 109 -78 267 -163 315 -169 45 -5 28 24 -33 57 -32 18 -62 36 -67 41
-12 12 265 0 353 -15 86 -15 102 -25 126 -81 60 -142 74 -337 75 -1070 l1
-605 -23 -57 c-31 -76 -99 -150 -170 -185 l-57 -28 -490 4 c-269 2 -679 6
-910 10 l-420 6 -55 26 c-64 31 -112 76 -143 133 -22 41 -22 44 -25 761 -3
753 -2 786 40 868 50 99 181 190 290 201 157 16 148 17 148 -16 0 -16 7 -64
16 -106 47 -227 173 -387 389 -492 55 -27 137 -58 182 -70 92 -23 268 -43 334
-38 65 5 60 25 -8 33 -183 20 -372 69 -489 126 -157 78 -289 243 -340 430 -24
84 -24 339 0 448 20 95 80 192 134 215 51 22 178 15 254 -14z m-1198 -682 c37
-60 25 -143 -21 -155 -38 -9 -63 26 -63 86 0 78 51 120 84 69z m2646 -120 c8
-20 14 -114 18 -242 4 -186 3 -211 -12 -221 -9 -7 -27 -10 -41 -7 l-25 4 0
182 c0 99 -3 211 -7 249 l-6 67 31 0 c25 0 32 -6 42 -32z"/>
<path d="M2485 1815 c-51 -50 -22 -128 47 -128 39 0 78 41 78 84 0 64 -78 92
-125 44z"/>
</g>
</svg>
